<svg width="25" height="25" viewBox="0 0 25 25" fill="none" xmlns="http://www.w3.org/2000/svg">
<path fill-rule="evenodd" clip-rule="evenodd" d="M13.3947 1.89917C13.3947 1.07074 12.7231 0.39917 11.8947 0.39917C11.0662 0.39917 10.3947 1.07074 10.3947 1.89917V11.0496L1.68628 11.0496C0.857853 11.0496 0.186279 11.7211 0.186279 12.5496C0.186279 13.378 0.857853 14.0496 1.68628 14.0496L10.3947 14.0496V23.101C10.3947 23.9294 11.0662 24.601 11.8947 24.601C12.7231 24.601 13.3947 23.9294 13.3947 23.101V14.0496L22.8881 14.0496C23.7165 14.0496 24.3881 13.378 24.3881 12.5496C24.3881 11.7211 23.7165 11.0496 22.8881 11.0496L13.3947 11.0496V1.89917Z" fill="#3C4953"/>
</svg>
